PathFileType	4	(X/Y/Z)	s02c0203.trc
DataRate	CameraRate	NumFrames	NumMarkers	Units	OrigDataRate	OrigDataStartFrame	OrigNumFrames
200	200	4	51	mm	200	750	2000
Frame#	Time	racr			lacr			c7			jug			rlel			rdr			llel			ldr			s2			lic			ric			lasi			rasi			rpsi			lpsi			rgt			lgt			rth1			rth2			rth3			rth4			rlfc			rmfc			rsh1			rsh2			rsh3			rsh4			rlmal			rmmal			rcal			rtoe			rmt5			rmt1			lth1			lth2			lth4			lth3			llfc			lmfc			lsh1			lsh2			lsh3			lsh4			llmal			lmmal			lcal			ltoe			lmt5			SBIKE			LBIKE			RBIKE			
		X1	Y1	Z1	X2	Y2	Z2	X3	Y3	Z3	X4	Y4	Z4	X5	Y5	Z5	X6	Y6	Z6	X7	Y7	Z7	X8	Y8	Z8	X9	Y9	Z9	X10	Y10	Z10	X11	Y11	Z11	X12	Y12	Z12	X13	Y13	Z13	X14	Y14	Z14	X15	Y15	Z15	X16	Y16	Z16	X17	Y17	Z17	X18	Y18	Z18	X19	Y19	Z19	X20	Y20	Z20	X21	Y21	Z21	X22	Y22	Z22	X23	Y23	Z23	X24	Y24	Z24	X25	Y25	Z25	X26	Y26	Z26	X27	Y27	Z27	X28	Y28	Z28	X29	Y29	Z29	X30	Y30	Z30	X31	Y31	Z31	X32	Y32	Z32	X33	Y33	Z33	X34	Y34	Z34	X35	Y35	Z35	X36	Y36	Z36	X37	Y37	Z37	X38	Y38	Z38	X39	Y39	Z39	X40	Y40	Z40	X41	Y41	Z41	X42	Y42	Z42	X43	Y43	Z43	X44	Y44	Z44	X45	Y45	Z45	X46	Y46	Z46	X47	Y47	Z47	X48	Y48	Z48	X49	Y49	Z49	X50	Y50	Z50	X51	Y51	Z51	
750	3.7500	516.921778	1244.828236	-119.295361	541.047748	1248.492132	-456.487782	519.418440	1292.618053	-293.492343	444.834780	1171.253920	-292.157846	531.717007	995.334386	-26.431878	690.368229	885.631444	-121.409638	518.998144	1008.480502	-609.250449	683.047514	881.259310	-532.378993	-0.173494	1116.929298	-316.732917	115.206682	1121.738224	-461.999228	122.687772	1104.258217	-168.080161	157.550779	1088.696665	-434.291326	177.923861	1092.528405	-203.031616	17.785541	1140.042927	-275.837795	17.213736	1156.981213	-358.166014	100.710415	1015.959738	-142.177840	81.223853	1034.602881	-500.033593	183.620321	956.754203	-130.762197	251.209421	900.450350	-136.633408	285.856836	824.739749	-116.410790	275.949878	916.990297	-161.009236	342.035869	696.815112	-151.989767	332.557045	676.750809	-256.334411	342.431421	587.771208	-129.590021	361.177984	501.797568	-145.036679	337.300905	418.792506	-140.636767	374.059134	503.657965	-182.458063	320.983103	301.231072	-147.756349	329.750505	321.408849	-227.695585	243.182552	266.432565	-187.778247	524.155295	198.469464	-194.529911	415.628262	207.016057	-131.915925	443.280983	218.889069	-237.737920	215.093822	990.977334	-506.743662	301.137243	976.707332	-503.882572	313.472676	1003.093554	-479.567495	368.457823	918.065483	-507.845688	450.108351	858.818291	-484.474492	448.793817	827.373630	-375.578263	394.770938	773.034780	-502.549211	344.833909	704.311796	-486.741063	263.904882	664.572506	-492.947408	358.862132	691.804949	-450.808176	171.468959	605.457295	-483.660984	185.642341	591.286497	-405.426280	91.422134	605.067542	-443.690210	285.185755	392.837214	-437.660430	198.320698	451.077020	-503.140334	-128.983758	869.580701	-313.122994	32.500878	82.771299	-515.245212	32.464354	82.588895	-115.235279	
751	3.7550	518.849795	1246.463257	-121.485641	539.393010	1250.696256	-459.454804	519.427889	1294.290046	-296.097635	445.192634	1172.724162	-293.948982	533.402905	997.119869	-27.104164	691.161865	885.813111	-121.517337	519.346892	1008.917559	-609.601935	683.626597	881.619907	-532.077025	0.558700	1116.622782	-315.414328	114.946267	1122.493397	-460.786084	123.505476	1103.819744	-167.126722	157.588630	1089.782731	-433.416966	178.881021	1091.875567	-201.888761	18.537079	1139.691719	-274.171635	17.292689	1157.004663	-356.353688	100.751752	1014.744312	-141.491283	81.378213	1036.477854	-499.592441	182.817149	954.526262	-129.805940	249.325298	897.032644	-135.725637	282.652466	820.772262	-115.674663	274.441570	913.233285	-160.134760	336.841114	692.360237	-151.312188	327.518475	672.389186	-255.713774	337.066613	583.533851	-128.937592	356.079485	497.626788	-144.429661	332.373688	414.582999	-140.037686	368.990280	499.541721	-181.680097	316.742939	297.089370	-147.138090	323.668233	315.334303	-226.805170	238.520605	263.715308	-187.417310	518.308444	190.533389	-194.557018	409.988098	201.050429	-131.880921	437.633370	212.381811	-237.649990	215.508800	994.557957	-506.371034	301.732579	981.654016	-503.600959	313.639850	1008.045269	-478.964764	370.187478	924.095001	-507.006887	452.748841	865.953508	-484.868444	451.783753	833.296203	-376.599257	398.208557	779.840906	-502.266776	348.349360	710.935526	-486.485420	267.606273	670.992406	-492.815203	362.439317	698.046252	-449.732086	175.357792	611.411858	-483.291216	189.468853	597.625060	-404.767082	95.288376	609.817050	-443.333309	292.257331	400.372837	-437.694897	204.022610	457.471297	-502.816099	-128.978777	869.621722	-313.050718	32.499805	82.851088	-515.191551	32.440676	82.586605	-115.222482	
752	3.7600	520.738793	1247.954115	-123.755158	537.738779	1252.772202	-462.327243	519.258150	1295.835448	-298.687433	445.786229	1173.822707	-295.771079	535.160913	998.974750	-27.577700	691.951230	885.977458	-121.520051	519.859242	1009.323260	-609.983029	684.304258	881.943646	-532.147363	1.185750	1116.211926	-313.917124	114.557393	1123.256372	-459.701480	124.335050	1103.283475	-166.191474	157.634172	1090.820831	-432.684563	179.827630	1091.132232	-200.831041	18.753671	1139.601927	-272.417863	17.449803	1157.108999	-354.642818	100.788574	1013.861369	-140.698222	81.531208	1038.190668	-499.062468	182.067492	952.435252	-128.798275	247.841036	893.852800	-134.991605	279.630788	816.797623	-114.979746	273.025765	909.666393	-159.133861	331.655463	688.334605	-150.525619	322.663788	668.351889	-255.166411	331.874716	579.691060	-128.288732	351.039043	493.867131	-143.827901	327.558897	410.791724	-139.451934	364.077564	495.736269	-181.041042	312.420092	293.247454	-146.657284	319.241506	311.619082	-226.171190	233.793572	261.319151	-187.088845	512.120418	182.697745	-194.550507	404.069975	195.379254	-131.805729	431.595053	205.897409	-237.923439	215.869036	998.066729	-506.103307	302.202927	986.124062	-502.892213	313.801143	1013.067762	-478.809730	371.601046	929.902313	-506.903719	455.442412	872.842600	-485.171057	454.032202	841.261280	-375.171334	401.572299	786.465539	-502.266763	351.975465	717.368762	-486.222234	271.490534	677.013797	-492.581139	366.647794	705.719953	-451.598890	179.447824	616.978765	-482.876579	193.373673	603.213802	-404.259173	99.298768	614.280629	-443.013552	299.409701	407.837813	-437.792873	210.383695	463.624611	-502.753322	-128.970746	869.652614	-312.970245	32.490015	82.862831	-515.242946	32.466209	82.592273	-115.226510	
753	3.7650	522.613769	1249.476902	-125.983932	536.031937	1254.691434	-465.132856	519.089909	1297.333978	-301.292908	446.298385	1174.936455	-297.552644	537.056478	1000.722063	-28.117900	692.963794	886.129242	-121.608779	520.451147	1009.686450	-610.328525	685.147356	882.307188	-532.391376	1.523552	1116.359144	-312.281089	114.150269	1124.020718	-458.629137	125.140034	1102.891658	-165.330049	157.666878	1091.666732	-431.658213	180.751844	1090.448228	-199.645582	19.067922	1139.566513	-270.751944	17.475420	1157.133932	-352.907679	100.853273	1012.991183	-139.920993	81.680560	1039.801268	-498.537719	181.383788	950.447231	-127.946363	246.254733	890.826166	-134.200375	276.805450	813.274457	-114.404359	271.692118	906.351100	-158.353665	327.177539	684.530873	-150.059759	318.231681	664.625337	-254.624936	326.962314	576.137840	-127.732542	346.164765	490.411667	-143.258595	322.708319	407.218030	-138.974660	359.330933	492.261989	-180.410492	307.903594	289.807957	-146.341365	314.721331	308.199114	-225.641169	229.816222	258.503789	-187.806571	505.533661	175.313033	-194.545558	397.894456	190.112714	-131.754028	425.517609	200.460024	-237.753702	216.129522	1001.366283	-505.826145	302.625730	990.767099	-502.459307	313.632017	1017.576536	-478.065224	372.906486	935.349244	-506.788348	457.848763	879.753107	-485.403433	457.549589	847.620957	-375.370256	404.873634	792.978408	-502.125069	355.797136	724.047535	-486.388816	275.517308	682.661397	-492.420121	370.524787	711.931353	-451.546712	183.761358	622.110920	-482.525418	198.303433	608.646764	-404.015873	103.630390	618.223978	-442.713088	307.116977	415.298611	-438.247765	216.631256	468.822390	-501.820902	-128.964823	869.738208	-312.911780	32.503058	82.885455	-515.247575	32.446601	82.609005	-115.218490	
